<mxfile host="Electron" modified="2023-12-24T13:40:58.261Z" agent="Mozilla/5.0 (Windows NT 10.0; Win64; x64) AppleWebKit/537.36 (KHTML, like Gecko) draw.io/22.1.11 Chrome/114.0.5735.289 Electron/25.9.8 Safari/537.36" etag="wqtig7r-bfQohbbREJu3" version="22.1.11" type="device">
  <diagram id="C5RBs43oDa-KdzZeNtuy" name="Page-1">
    <mxGraphModel dx="672" dy="544" grid="1" gridSize="10" guides="1" tooltips="1" connect="1" arrows="1" fold="1" page="1" pageScale="1" pageWidth="827" pageHeight="1169" math="0" shadow="0">
      <root>
        <mxCell id="WIyWlLk6GJQsqaUBKTNV-0" />
        <mxCell id="WIyWlLk6GJQsqaUBKTNV-1" parent="WIyWlLk6GJQsqaUBKTNV-0" />
        <mxCell id="BzaOLELFeYCMCZvRJTnY-4" value="" style="edgeStyle=orthogonalEdgeStyle;rounded=0;orthogonalLoop=1;jettySize=auto;html=1;" edge="1" parent="WIyWlLk6GJQsqaUBKTNV-1" source="BzaOLELFeYCMCZvRJTnY-0" target="BzaOLELFeYCMCZvRJTnY-2">
          <mxGeometry relative="1" as="geometry" />
        </mxCell>
        <mxCell id="BzaOLELFeYCMCZvRJTnY-0" value="Start" style="ellipse;whiteSpace=wrap;html=1;" vertex="1" parent="WIyWlLk6GJQsqaUBKTNV-1">
          <mxGeometry x="260" y="90" width="80" height="40" as="geometry" />
        </mxCell>
        <mxCell id="BzaOLELFeYCMCZvRJTnY-14" value="" style="edgeStyle=orthogonalEdgeStyle;rounded=0;orthogonalLoop=1;jettySize=auto;html=1;" edge="1" parent="WIyWlLk6GJQsqaUBKTNV-1" source="BzaOLELFeYCMCZvRJTnY-1" target="BzaOLELFeYCMCZvRJTnY-13">
          <mxGeometry relative="1" as="geometry" />
        </mxCell>
        <mxCell id="BzaOLELFeYCMCZvRJTnY-1" value="count = 0&lt;br&gt;i = 0" style="rounded=0;whiteSpace=wrap;html=1;" vertex="1" parent="WIyWlLk6GJQsqaUBKTNV-1">
          <mxGeometry x="240" y="270" width="120" height="60" as="geometry" />
        </mxCell>
        <mxCell id="BzaOLELFeYCMCZvRJTnY-5" value="" style="edgeStyle=orthogonalEdgeStyle;rounded=0;orthogonalLoop=1;jettySize=auto;html=1;" edge="1" parent="WIyWlLk6GJQsqaUBKTNV-1" source="BzaOLELFeYCMCZvRJTnY-2" target="BzaOLELFeYCMCZvRJTnY-1">
          <mxGeometry relative="1" as="geometry" />
        </mxCell>
        <mxCell id="BzaOLELFeYCMCZvRJTnY-2" value="initialArray[5]" style="rounded=0;whiteSpace=wrap;html=1;" vertex="1" parent="WIyWlLk6GJQsqaUBKTNV-1">
          <mxGeometry x="240" y="170" width="120" height="60" as="geometry" />
        </mxCell>
        <mxCell id="BzaOLELFeYCMCZvRJTnY-9" value="" style="edgeStyle=orthogonalEdgeStyle;rounded=0;orthogonalLoop=1;jettySize=auto;html=1;" edge="1" parent="WIyWlLk6GJQsqaUBKTNV-1" source="BzaOLELFeYCMCZvRJTnY-6" target="BzaOLELFeYCMCZvRJTnY-8">
          <mxGeometry relative="1" as="geometry" />
        </mxCell>
        <mxCell id="BzaOLELFeYCMCZvRJTnY-10" value="Yes" style="edgeLabel;html=1;align=center;verticalAlign=middle;resizable=0;points=[];" vertex="1" connectable="0" parent="BzaOLELFeYCMCZvRJTnY-9">
          <mxGeometry x="-0.1" y="3" relative="1" as="geometry">
            <mxPoint as="offset" />
          </mxGeometry>
        </mxCell>
        <mxCell id="BzaOLELFeYCMCZvRJTnY-16" value="" style="edgeStyle=orthogonalEdgeStyle;rounded=0;orthogonalLoop=1;jettySize=auto;html=1;" edge="1" parent="WIyWlLk6GJQsqaUBKTNV-1" source="BzaOLELFeYCMCZvRJTnY-6" target="BzaOLELFeYCMCZvRJTnY-15">
          <mxGeometry relative="1" as="geometry" />
        </mxCell>
        <mxCell id="BzaOLELFeYCMCZvRJTnY-17" value="No" style="edgeLabel;html=1;align=center;verticalAlign=middle;resizable=0;points=[];" vertex="1" connectable="0" parent="BzaOLELFeYCMCZvRJTnY-16">
          <mxGeometry x="-0.3333" relative="1" as="geometry">
            <mxPoint as="offset" />
          </mxGeometry>
        </mxCell>
        <mxCell id="BzaOLELFeYCMCZvRJTnY-6" value="array.length&amp;lt;=3" style="rhombus;whiteSpace=wrap;html=1;" vertex="1" parent="WIyWlLk6GJQsqaUBKTNV-1">
          <mxGeometry x="235" y="479" width="130" height="80" as="geometry" />
        </mxCell>
        <mxCell id="BzaOLELFeYCMCZvRJTnY-23" value="" style="edgeStyle=orthogonalEdgeStyle;rounded=0;orthogonalLoop=1;jettySize=auto;html=1;entryX=0;entryY=0.5;entryDx=0;entryDy=0;" edge="1" parent="WIyWlLk6GJQsqaUBKTNV-1" source="BzaOLELFeYCMCZvRJTnY-8" target="BzaOLELFeYCMCZvRJTnY-13">
          <mxGeometry relative="1" as="geometry">
            <mxPoint x="77.25" y="638" as="targetPoint" />
            <Array as="points">
              <mxPoint x="50" y="640" />
              <mxPoint x="50" y="390" />
            </Array>
          </mxGeometry>
        </mxCell>
        <mxCell id="BzaOLELFeYCMCZvRJTnY-8" value="&lt;font style=&quot;&quot;&gt;&amp;nbsp;newArray[count] = initialArray[i];&lt;br&gt;count = count + 1&lt;br&gt;i = i + 1&lt;br&gt;&lt;/font&gt;" style="whiteSpace=wrap;html=1;" vertex="1" parent="WIyWlLk6GJQsqaUBKTNV-1">
          <mxGeometry x="208.5" y="606" width="182.5" height="64" as="geometry" />
        </mxCell>
        <mxCell id="BzaOLELFeYCMCZvRJTnY-11" value="Yes" style="edgeStyle=orthogonalEdgeStyle;rounded=0;orthogonalLoop=1;jettySize=auto;html=1;entryX=0.5;entryY=0;entryDx=0;entryDy=0;" edge="1" parent="WIyWlLk6GJQsqaUBKTNV-1" source="BzaOLELFeYCMCZvRJTnY-13" target="BzaOLELFeYCMCZvRJTnY-6">
          <mxGeometry relative="1" as="geometry">
            <mxPoint x="414" y="490" as="targetPoint" />
          </mxGeometry>
        </mxCell>
        <mxCell id="BzaOLELFeYCMCZvRJTnY-25" value="" style="edgeStyle=orthogonalEdgeStyle;rounded=0;orthogonalLoop=1;jettySize=auto;html=1;" edge="1" parent="WIyWlLk6GJQsqaUBKTNV-1" source="BzaOLELFeYCMCZvRJTnY-13" target="BzaOLELFeYCMCZvRJTnY-24">
          <mxGeometry relative="1" as="geometry" />
        </mxCell>
        <mxCell id="BzaOLELFeYCMCZvRJTnY-26" value="No" style="edgeLabel;html=1;align=center;verticalAlign=middle;resizable=0;points=[];" vertex="1" connectable="0" parent="BzaOLELFeYCMCZvRJTnY-25">
          <mxGeometry x="0.1082" y="1" relative="1" as="geometry">
            <mxPoint as="offset" />
          </mxGeometry>
        </mxCell>
        <mxCell id="BzaOLELFeYCMCZvRJTnY-13" value="i &amp;lt; size" style="rhombus;whiteSpace=wrap;html=1;" vertex="1" parent="WIyWlLk6GJQsqaUBKTNV-1">
          <mxGeometry x="237" y="350" width="126" height="80" as="geometry" />
        </mxCell>
        <mxCell id="BzaOLELFeYCMCZvRJTnY-21" value="" style="edgeStyle=orthogonalEdgeStyle;rounded=0;orthogonalLoop=1;jettySize=auto;html=1;entryX=0;entryY=0.5;entryDx=0;entryDy=0;" edge="1" parent="WIyWlLk6GJQsqaUBKTNV-1" source="BzaOLELFeYCMCZvRJTnY-15" target="BzaOLELFeYCMCZvRJTnY-13">
          <mxGeometry relative="1" as="geometry">
            <mxPoint x="150" y="427.5" as="targetPoint" />
            <Array as="points">
              <mxPoint x="150" y="390" />
            </Array>
          </mxGeometry>
        </mxCell>
        <mxCell id="BzaOLELFeYCMCZvRJTnY-15" value="i = i + 1" style="whiteSpace=wrap;html=1;" vertex="1" parent="WIyWlLk6GJQsqaUBKTNV-1">
          <mxGeometry x="110" y="498" width="80" height="41" as="geometry" />
        </mxCell>
        <mxCell id="BzaOLELFeYCMCZvRJTnY-28" value="" style="edgeStyle=orthogonalEdgeStyle;rounded=0;orthogonalLoop=1;jettySize=auto;html=1;" edge="1" parent="WIyWlLk6GJQsqaUBKTNV-1" source="BzaOLELFeYCMCZvRJTnY-24" target="BzaOLELFeYCMCZvRJTnY-27">
          <mxGeometry relative="1" as="geometry" />
        </mxCell>
        <mxCell id="BzaOLELFeYCMCZvRJTnY-24" value="newArray[count]" style="shape=document;whiteSpace=wrap;html=1;boundedLbl=1;" vertex="1" parent="WIyWlLk6GJQsqaUBKTNV-1">
          <mxGeometry x="440" y="350" width="120" height="80" as="geometry" />
        </mxCell>
        <mxCell id="BzaOLELFeYCMCZvRJTnY-27" value="End" style="ellipse;whiteSpace=wrap;html=1;" vertex="1" parent="WIyWlLk6GJQsqaUBKTNV-1">
          <mxGeometry x="610" y="370" width="90" height="40" as="geometry" />
        </mxCell>
      </root>
    </mxGraphModel>
  </diagram>
</mxfile>
